<?xml version="1.0" encoding="utf-8"?>
<!-- Generator: Adobe Illustrator 16.0.4, SVG Export Plug-In . SVG Version: 6.00 Build 0)  -->
<!DOCTYPE svg PUBLIC "-//W3C//DTD SVG 1.1//EN" "http://www.w3.org/Graphics/SVG/1.1/DTD/svg11.dtd">
<svg version="1.1" id="Layer_1" xmlns="http://www.w3.org/2000/svg" xmlns:xlink="http://www.w3.org/1999/xlink" x="0px" y="0px"
	 width="500.0px" height="500.0px" viewBox="0 0 500 500" enable-background="new 0 0 500 500"
	 xml:space="preserve">

<g transform="translate(250 250)">
	<!-- torso -->
	<g transform="rotate(-9)">
	<polygon fill="#000000" points="-50,-50 50,-50 -50,50 "/>
	<polygon fill="#000000" points="-50,50 50,-50 50,50"/>
</g>

	<!-- head -->
	<g transform="translate(-11 -80)">
		<g transform="rotate(40)">
			<g transform="scale(.5 .5)">
				<polygon fill="#000000" points="-50,-50 50,-50 -50,50 "/>
				<polygon fill="#000000" points="-50,50 50,-50 50,50"/>
			</g>
		</g>
	</g>

	<!-- left leg -->
	<g transform="translate(-50 60)">
		<g transform="rotate(60)">
		<g transform="scale(.2 .6)">
			<polygon fill="#000000" points="-50,-50 50,-50 -50,50 "/>
			<polygon fill="#000000" points="-50,50 50,-50 50,50"/>
			</g>
		</g>
		<g transform="translate(-0 20)">
			<g transform="rotate(-80)">
				<g transform="scale(.2 .6)">
				<polygon fill="#000000" points="-50,-50 50,-50 -50,50 "/>
				<polygon fill="#000000" points="-50,50 50,-50 50,50"/>
				</g>
			</g>
		</g>
	</g>

	<!-- right leg -->
	<g transform="translate(80 35)">
		<g transform="rotate(-100)">
		<g transform="scale(.2 .6)">
			<polygon fill="#000000" points="-50,-50 50,-50 -50,50 "/>
			<polygon fill="#000000" points="-50,50 50,-50 50,50"/>
			</g>
		</g>
		<g transform="translate(59 -11)">
			<g transform="rotate(-100)">
			<g transform="scale(.2 .6)">
				<polygon fill="#000000" points="-50,-50 50,-50 -50,50 "/>
				<polygon fill="#000000" points="-50,50 50,-50 50,50"/>
				</g>
			</g>
		</g>
	</g>

	<!--left arm -->
	<g transform="translate(-80 -25)">
	<g transform="rotate(-25)">
		<g transform="scale(.6 .2)">
			<polygon fill="#000000" points="-50,-50 50,-50 -50,50 "/>
			<polygon fill="#000000" points="-50,50 50,-50 50,50"/>
			</g>
		</g>
		<g transform="translate(-10 30)">
			<g transform="rotate(-130)">
			<g transform="scale(.6 .2)">
				<polygon fill="#000000" points="-50,-50 50,-50 -50,50 "/>
				<polygon fill="#000000" points="-50,50 50,-50 50,50"/>
				</g>
			</g>
		</g>
	</g>

	<!--right arm -->
	<g transform="translate(70 -45)">
		<g transform="rotate(8)">
		<g transform="scale(.6 .2)">
			<polygon fill="#000000" points="-50,-50 50,-50 -50,50 "/>
			<polygon fill="#000000" points="-50,50 50,-50 50,50"/>
			</g>
		</g>
		<g transform="translate(10 30)">
			<g transform="rotate(130)">
			<g transform="scale(.6 .2)">
				<polygon fill="#000000" points="-50,-50 50,-50 -50,50 "/>
				<polygon fill="#000000" points="-50,50 50,-50 50,50"/>
				</g>
			</g>
		</g>
	</g>

</g>


</svg>
